<?xml version="1.0" encoding="UTF-8"?>
<svg id="Layer_1" xmlns="http://www.w3.org/2000/svg" version="1.1" viewBox="0 0 240 234">
  <!-- Generator: Adobe Illustrator 29.0.0, SVG Export Plug-In . SVG Version: 2.1.0 Build 186)  -->
  <defs>
    <style>
      .st0 {
        fill: #1e1e1e;
      }

      .st1 {
        fill: #ff7262;
      }

      .st2 {
        fill: #a259ff;
      }

      .st3 {
        fill: #1abcfe;
      }

      .st4 {
        fill: #f24e1e;
      }

      .st5 {
        fill: #0acf83;
      }
    </style>
  </defs>
  <g id="vlpb">
    <g id="vlpc">
      <g id="vlpd">
        <path class="st0" d="M42.5,0h155c23.5,0,42.5,19,42.5,42.5v149c0,23.5-19,42.5-42.5,42.5H42.5c-23.5,0-42.5-19-42.5-42.5V42.5C0,19,19,0,42.5,0Z"/>
      </g>
    </g>
  </g>
  <g>
    <path id="path0_fill" class="st5" d="M93.1,197.7c14.8,0,26.9-12.1,26.9-26.9v-26.9h-26.9c-14.8,0-26.9,12.1-26.9,26.9s12.1,26.9,26.9,26.9Z"/>
    <path id="path1_fill" class="st2" d="M66.2,117c0-14.8,12.1-26.9,26.9-26.9h26.9v53.8h-26.9c-14.8,0-26.9-12.1-26.9-26.9Z"/>
    <path id="path1_fill1" data-name="path1_fill" class="st4" d="M66.2,63.2c0-14.8,12.1-26.9,26.9-26.9h26.9v53.8h-26.9c-14.8,0-26.9-12.1-26.9-26.9Z"/>
    <path id="path2_fill" class="st1" d="M120,36.3h26.9c14.8,0,26.9,12.1,26.9,26.9s-12.1,26.9-26.9,26.9h-26.9v-53.8Z"/>
    <path id="path3_fill" class="st3" d="M173.8,117c0,14.8-12.1,26.9-26.9,26.9s-26.9-12.1-26.9-26.9,12.1-26.9,26.9-26.9,26.9,12.1,26.9,26.9Z"/>
  </g>
</svg>